<?xml version="1.0" encoding="UTF-8" standalone="no"?>
<!-- Created with Inkscape (http://www.inkscape.org/) -->

<svg
   xmlns:dc="http://purl.org/dc/elements/1.1/"
   xmlns:cc="http://creativecommons.org/ns#"
   xmlns:rdf="http://www.w3.org/1999/02/22-rdf-syntax-ns#"
   xmlns:svg="http://www.w3.org/2000/svg"
   xmlns="http://www.w3.org/2000/svg"
   xmlns:sodipodi="http://sodipodi.sourceforge.net/DTD/sodipodi-0.dtd"
   xmlns:inkscape="http://www.inkscape.org/namespaces/inkscape"
   width="64mm"
   height="59mm"
   viewBox="0 0 64 59"
   version="1.1"
   id="svg1054"
   inkscape:version="0.92.4 (5da689c313, 2019-01-14)"
   sodipodi:docname="SP.svg">
  <defs
     id="defs1048" />
  <sodipodi:namedview
     id="base"
     pagecolor="#ffffff"
     bordercolor="#666666"
     borderopacity="1.0"
     inkscape:pageopacity="0.0"
     inkscape:pageshadow="2"
     inkscape:zoom="0.98994949"
     inkscape:cx="420.201"
     inkscape:cy="254.16096"
     inkscape:document-units="mm"
     inkscape:current-layer="layer1"
     showgrid="false"
     inkscape:window-width="1366"
     inkscape:window-height="745"
     inkscape:window-x="-8"
     inkscape:window-y="-8"
     inkscape:window-maximized="1" />
  <metadata
     id="metadata1051">
    <rdf:RDF>
      <cc:Work
         rdf:about="">
        <dc:format>image/svg+xml</dc:format>
        <dc:type
           rdf:resource="http://purl.org/dc/dcmitype/StillImage" />
        <dc:title></dc:title>
      </cc:Work>
    </rdf:RDF>
  </metadata>
  <g
     inkscape:label="Capa 1"
     inkscape:groupmode="layer"
     id="layer1"
     transform="translate(0,-238)">
    <path
       style="opacity:1;fill:#62243f;fill-opacity:1;stroke:none;stroke-width:0.2883659;stroke-linecap:square;stroke-linejoin:bevel;stroke-miterlimit:4;stroke-dasharray:none;stroke-opacity:1;paint-order:markers fill stroke"
       id="path1667"
       sodipodi:type="arc"
       sodipodi:cx="31.494871"
       sodipodi:cy="268.7619"
       sodipodi:rx="27.906778"
       sodipodi:ry="25.416117"
       sodipodi:start="0"
       sodipodi:end="6.0244228"
       sodipodi:open="true"
       d="M 59.401649,268.7619 A 27.906778,25.416117 0 0 1 33.298919,294.12486 27.906778,25.416117 0 0 1 3.82134,272.0411 27.906778,25.416117 0 0 1 26.112884,243.82292 27.906778,25.416117 0 0 1 58.47256,262.25831" />
    <path
       style="opacity:1;fill:#e76f8d;fill-opacity:1;stroke:#f1cc6e;stroke-width:0;stroke-linecap:square;stroke-linejoin:bevel;stroke-miterlimit:4;stroke-dasharray:none;stroke-opacity:1;paint-order:markers fill stroke"
       d="m 36.088704,260.72099 c -1.160403,-0.23438 -3.368472,-0.52533 -4.968248,-0.65463 -1.361958,-0.11005 -3.553529,-0.14531 -4.449554,-0.0716 -0.963824,0.0794 -0.978834,0.0667 -0.547571,-0.458 0.622214,-0.75711 1.361355,-1.16588 2.575883,-1.42456 0.38898,-0.0828 0.709324,-0.10663 1.716637,-0.12694 2.682384,-0.0544 4.053294,0.24379 5.277544,1.14801 0.425558,0.3143 0.847348,0.77057 1.087861,1.17675 0.07845,0.13251 0.142899,0.25324 0.143232,0.26811 4.04e-4,0.0228 -0.332959,0.11546 -0.589819,0.16384 -0.04069,0.009 -0.151268,-0.002 -0.245955,-0.0208 z"
       id="path1012"
       inkscape:connector-curvature="0" />
    <path
       style="opacity:1;fill:#e76f8d;fill-opacity:1;stroke:#f1cc6e;stroke-width:0;stroke-linecap:square;stroke-linejoin:bevel;stroke-miterlimit:4;stroke-dasharray:none;stroke-opacity:1;paint-order:markers fill stroke"
       d="m 24.762595,263.88225 c -1.106687,-0.47358 -1.287381,-0.82066 -0.869688,-1.6704 0.231661,-0.4713 0.417894,-0.68162 0.75144,-0.84867 0.419583,-0.21015 0.926528,-0.3058 1.926009,-0.36338 0.902585,-0.052 0.964946,-0.0495 1.820043,0.0724 1.317182,0.18769 2.544025,0.30505 4.884297,0.46723 1.008132,0.0698 3.554237,0.52683 4.338902,0.77874 0.605751,0.19448 1.036396,0.4489 0.961327,0.56796 -0.09784,0.15514 -1.425169,0.38892 -2.211985,0.38954 -1.412033,0.001 -2.925035,0.17743 -4.148247,0.48332 -0.709457,0.1774 -0.832892,0.19354 -1.825297,0.23851 -0.585402,0.0266 -2.005154,0.0482 -3.154978,0.048 l -2.09059,-1.4e-4 -0.381233,-0.16319 z"
       id="path1014"
       inkscape:connector-curvature="0" />
    <path
       style="opacity:1;fill:#e76f8d;fill-opacity:1;stroke:#f1cc6e;stroke-width:0;stroke-linecap:square;stroke-linejoin:bevel;stroke-miterlimit:4;stroke-dasharray:none;stroke-opacity:1;paint-order:markers fill stroke"
       d="m 23.770124,267.84873 c -0.515545,-0.0648 -0.84382,-0.1622 -1.143966,-0.33917 -0.593034,-0.34978 -0.65742,-0.63456 -0.284587,-1.25885 0.248176,-0.41554 0.512365,-0.63872 0.952146,-0.80435 0.686299,-0.25847 1.554515,-0.29485 3.965299,-0.1662 2.039171,0.10873 2.843285,0.0559 4.082811,-0.26863 0.375192,-0.0982 0.759755,-0.15762 1.25435,-0.19364 3.126015,-0.22776 5.096286,-0.43578 5.779873,-0.61025 0.662152,-0.169 2.21048,0.12382 2.656694,0.50243 0.36025,0.30564 0.419366,0.61968 0.1692,0.89895 -0.289199,0.32285 -1.616804,0.89928 -2.629139,1.14152 -0.216433,0.0519 -0.581671,0.10567 -0.811644,0.11956 -0.229952,0.0131 -1.59131,0.14334 -3.0252,0.28754 -4.125529,0.4148 -5.947094,0.57275 -8.042638,0.69739 -0.960762,0.0571 -2.443947,0.0539 -2.923199,-0.006 z"
       id="path1016"
       inkscape:connector-curvature="0" />
    <path
       style="opacity:1;fill:#b66f8d;fill-opacity:1;stroke:#f1cc6e;stroke-width:0;stroke-linecap:square;stroke-linejoin:bevel;stroke-miterlimit:4;stroke-dasharray:none;stroke-opacity:1;paint-order:markers fill stroke"
       d="m 37.170888,277.7546 c 0,-0.0256 0.05321,-0.17511 0.118303,-0.33215 0.66716,-1.60979 1.699547,-6.71468 1.778725,-8.79548 l 0.02292,-0.60267 0.700165,-0.20393 c 0.385089,-0.11218 0.749973,-0.21758 0.810846,-0.23425 0.142222,-0.0391 0.141556,-0.005 -0.01343,0.58868 -0.06846,0.26195 -0.2798,1.21396 -0.469568,2.11559 -1.240743,5.89493 -1.573944,7.03296 -2.150394,7.34457 -0.220209,0.11907 -0.797216,0.20561 -0.797216,0.11972 z"
       id="path1026"
       inkscape:connector-curvature="0" />
    <path
       style="opacity:1;fill:#836f8d;fill-opacity:1;stroke:#f1cc6e;stroke-width:0;stroke-linecap:square;stroke-linejoin:bevel;stroke-miterlimit:4;stroke-dasharray:none;stroke-opacity:1;paint-order:markers fill stroke"
       d="m 35.030118,277.75941 c 0.529701,-1.21324 1.215347,-4.32841 1.532515,-6.96276 0.04634,-0.38452 0.08582,-1.04984 0.08804,-1.4785 l 0.003,-0.77937 0.260878,-0.032 c 0.143394,-0.0175 0.584529,-0.1061 0.980137,-0.19656 0.395589,-0.0905 0.72567,-0.15827 0.733525,-0.15056 0.0081,0.009 -0.04069,0.14744 -0.107933,0.3104 -0.683617,1.65894 -1.790276,7.16634 -1.792366,8.91999 l -4.85e-4,0.39777 -0.455007,3e-4 c -0.250264,1.3e-4 -0.64137,0.0147 -0.869132,0.0318 -0.394971,0.0302 -0.412272,0.0274 -0.373904,-0.0605 z"
       id="path1028"
       inkscape:connector-curvature="0" />
    <path
       style="opacity:1;fill:#836f8d;fill-opacity:1;stroke:#f1cc6e;stroke-width:0;stroke-linecap:square;stroke-linejoin:bevel;stroke-miterlimit:4;stroke-dasharray:none;stroke-opacity:1;paint-order:markers fill stroke"
       d="m 31.091809,277.71415 c 0.457751,-1.78765 0.612493,-7.3597 0.24806,-8.93264 l -0.0256,-0.1107 1.218962,0.0328 c 0.67042,0.018 1.223781,0.0364 1.229687,0.0409 0.0067,0.005 -0.03279,0.14793 -0.086,0.3189 -0.539941,1.73507 -1.09802,7.08216 -0.889164,8.51947 l 0.03681,0.25314 h -0.881952 -0.881937 z"
       id="path1030"
       inkscape:connector-curvature="0" />
    <path
       style="opacity:1;fill:#836f8d;fill-opacity:1;stroke:#f1cc6e;stroke-width:0;stroke-linecap:square;stroke-linejoin:bevel;stroke-miterlimit:4;stroke-dasharray:none;stroke-opacity:1;paint-order:markers fill stroke"
       d="m 27.79464,277.75282 -0.20223,-0.0181 -0.03262,-0.34712 c -0.161134,-1.71891 -1.749683,-6.75489 -2.593887,-8.22305 -0.08165,-0.14187 -0.139214,-0.26689 -0.128171,-0.27775 0.02058,-0.0202 2.149389,-0.11185 2.645222,-0.11399 l 0.273159,-10e-4 0.0033,1.02457 c 0.01,2.30129 0.470468,5.93255 0.964378,7.59384 l 0.118299,0.39778 -0.423032,-0.009 c -0.232681,-0.005 -0.514038,-0.0165 -0.625259,-0.0266 z"
       id="path1032"
       inkscape:connector-curvature="0" />
    <path
       style="opacity:1;fill:#b66f8d;fill-opacity:1;stroke:#f1cc6e;stroke-width:0;stroke-linecap:square;stroke-linejoin:bevel;stroke-miterlimit:4;stroke-dasharray:none;stroke-opacity:1;paint-order:markers fill stroke"
       d="m 33.236731,277.71269 c 0.203919,-0.52572 0.555401,-2.38711 0.732347,-3.87852 0.217305,-1.83143 0.336206,-3.96424 0.262332,-4.70596 l -0.03898,-0.39073 0.763636,-0.0306 c 0.420003,-0.0169 0.89462,-0.0452 1.054716,-0.0629 0.273286,-0.0303 0.288683,-0.0266 0.252052,0.0597 -0.504361,1.18873 -1.1668,4.17517 -1.477255,6.65986 -0.106251,0.85032 -0.174753,1.93449 -0.140218,2.21978 l 0.03045,0.25259 H 33.93232 33.188828 Z"
       id="path1034"
       inkscape:connector-curvature="0" />
    <path
       style="opacity:1;fill:#b66f8d;fill-opacity:1;stroke:#f1cc6e;stroke-width:0;stroke-linecap:square;stroke-linejoin:bevel;stroke-miterlimit:4;stroke-dasharray:none;stroke-opacity:1;paint-order:markers fill stroke"
       d="m 29.274193,276.57035 c -0.0017,-1.26981 -0.04401,-1.88224 -0.248595,-3.59207 -0.188843,-1.5788 -0.483485,-3.18798 -0.730088,-3.98745 -0.04049,-0.13137 -0.06526,-0.24703 -0.05505,-0.25705 0.01,-0.01 0.621629,-0.0306 1.358696,-0.0461 l 1.340104,-0.0277 -0.0333,0.11612 c -0.08299,0.28939 -0.23233,1.29504 -0.300113,2.02055 -0.219413,2.34807 -0.208721,5.77705 0.02125,6.81036 l 0.04015,0.1808 -0.695737,-3e-5 -0.695737,-4e-5 z"
       id="path1036"
       inkscape:connector-curvature="0" />
    <path
       style="opacity:1;fill:#b66f8d;fill-opacity:1;stroke:#f1cc6e;stroke-width:0;stroke-linecap:square;stroke-linejoin:bevel;stroke-miterlimit:4;stroke-dasharray:none;stroke-opacity:1;paint-order:markers fill stroke"
       d="m 26.808042,277.69333 c -0.227696,-0.0532 -0.566379,-0.26099 -0.68687,-0.42148 -0.169483,-0.22579 -0.311358,-0.5266 -1.07563,-2.28051 -0.831856,-1.90905 -1.393633,-3.25896 -1.88612,-4.53221 -0.189763,-0.49057 -0.37981,-0.97264 -0.422362,-1.07122 -0.07831,-0.18133 -0.09906,-0.45976 -0.04835,-0.64525 0.02678,-0.0976 0.03798,-0.0989 0.305368,-0.0381 0.152767,0.0348 0.433203,0.0758 0.623369,0.0908 0.190148,0.0147 0.45877,0.0388 0.596914,0.0526 l 0.251188,0.025 0.03012,0.44337 c 0.05639,0.828 0.489994,2.56666 1.150827,4.61398 0.436701,1.35295 1.133843,3.11539 1.425625,3.60405 l 0.122314,0.20491 -0.115287,-0.005 c -0.06342,-0.003 -0.185479,-0.0213 -0.271183,-0.0413 z"
       id="path1038"
       inkscape:connector-curvature="0" />
    <path
       d="m 40.136611,264.35477 a 1.4230262,1.4464457 0 0 1 -1.331031,1.44342 1.4230262,1.4464457 0 0 1 -1.503127,-1.2568 1.4230262,1.4464457 0 0 1 1.136684,-1.60591 1.4230262,1.4464457 0 0 1 1.650095,1.04915"
       sodipodi:open="true"
       sodipodi:end="6.0244144"
       sodipodi:start="0"
       sodipodi:ry="1.4464457"
       sodipodi:rx="1.4230262"
       sodipodi:cy="264.35477"
       sodipodi:cx="38.713585"
       sodipodi:type="arc"
       id="path981"
       style="opacity:1;fill:#7ab3dd;fill-opacity:1;stroke:none;stroke-width:0.52596211;stroke-linecap:square;stroke-linejoin:bevel;stroke-miterlimit:4;stroke-dasharray:none;stroke-opacity:1;paint-order:markers fill stroke" />
    <path
       style="opacity:1;fill:#6b3689;fill-opacity:1;stroke:none;stroke-width:0.56979227;stroke-linecap:square;stroke-linejoin:bevel;stroke-miterlimit:4;stroke-dasharray:none;stroke-opacity:1;paint-order:markers fill stroke"
       id="path992"
       sodipodi:type="arc"
       sodipodi:cx="28.534559"
       sodipodi:cy="262.76077"
       sodipodi:rx="1.6935735"
       sodipodi:ry="1.5910902"
       sodipodi:start="0"
       sodipodi:end="6.0244144"
       sodipodi:open="true"
       d="m 30.228133,262.76077 a 1.6935735,1.5910902 0 0 1 -1.584088,1.58776 1.6935735,1.5910902 0 0 1 -1.788903,-1.38247 1.6935735,1.5910902 0 0 1 1.352791,-1.76651 1.6935735,1.5910902 0 0 1 1.963813,1.15407" />
    <path
       sodipodi:type="star"
       style="opacity:1;fill:#7f7fb3;fill-opacity:1;stroke:none;stroke-width:0.85156035;stroke-linecap:square;stroke-linejoin:bevel;stroke-miterlimit:4;stroke-dasharray:none;stroke-opacity:1;paint-order:markers fill stroke"
       id="path863"
       sodipodi:sides="5"
       sodipodi:cx="25.382071"
       sodipodi:cy="20.335243"
       sodipodi:r1="3.334259"
       sodipodi:r2="1.6671296"
       sodipodi:arg1="0.60107375"
       sodipodi:arg2="1.2293923"
       inkscape:flatsided="false"
       inkscape:rounded="0"
       inkscape:randomized="0"
       d="m 28.13193,22.220861 -2.191687,-0.314706 -1.501748,1.627048 -0.377966,-2.181668 -2.01148,-0.925462 1.958092,-1.033639 0.258585,-2.199015 1.588133,1.542844 2.171294,-0.433604 -0.976572,1.987169 z"
       inkscape:transform-center-x="0.53830165"
       inkscape:transform-center-y="0.046605116"
       transform="matrix(0.48845902,0,0,0.43931136,21.422991,251.81152)" />
    <path
       sodipodi:type="star"
       style="opacity:1;fill:#5dd59e;fill-opacity:1;stroke:none;stroke-width:0.21166667;stroke-linecap:square;stroke-linejoin:bevel;stroke-miterlimit:4;stroke-dasharray:none;stroke-opacity:1;paint-order:markers fill stroke"
       id="path882"
       sodipodi:sides="4"
       sodipodi:cx="79.749191"
       sodipodi:cy="193.81912"
       sodipodi:r1="0.66064125"
       sodipodi:r2="0.3303206"
       sodipodi:arg1="1.3487144"
       sodipodi:arg2="2.1341126"
       inkscape:flatsided="false"
       inkscape:rounded="0"
       inkscape:randomized="0"
       d="m 79.894705,194.46354 -0.321903,-0.36514 -0.468027,-0.13376 0.365134,-0.32191 0.133769,-0.46802 0.321902,0.36513 0.468028,0.13377 -0.365134,0.3219 z"
       transform="matrix(1.6732489,0,0,1.6400644,-109.93639,-52.82247)" />
    <path
       style="opacity:1;fill:#f1cc6e;fill-opacity:1;stroke:none;stroke-width:0.50097889;stroke-linecap:square;stroke-linejoin:bevel;stroke-miterlimit:4;stroke-dasharray:none;stroke-opacity:1;paint-order:markers fill stroke"
       d="m 33.018438,258.43975 c -0.708285,0.2112 -1.566746,0.19101 -2.252794,-0.067 -0.581924,-0.21888 -1.129595,-0.64969 -1.325365,-1.16035 -0.345609,-0.90154 -0.08852,-1.99345 0.475906,-2.81363 0.235527,-0.34224 0.869437,-0.69562 0.869437,-0.69562 0,0 -0.237067,1.12377 -0.02008,1.63853 0.308145,0.73097 0.963406,1.40791 1.764457,1.79103 0.565223,0.27033 1.663142,0.25156 1.926814,0.25324 0.213222,0.001 -0.839285,0.87516 -1.438392,1.05381 z"
       id="path902"
       inkscape:connector-curvature="0"
       sodipodi:nodetypes="aaaccaaca" />
    <path
       sodipodi:type="star"
       style="opacity:1;fill:#b085bf;fill-opacity:1;stroke:none;stroke-width:0.89074069;stroke-linecap:square;stroke-linejoin:bevel;stroke-miterlimit:4;stroke-dasharray:none;stroke-opacity:1;paint-order:markers fill stroke"
       id="path863-8"
       sodipodi:sides="5"
       sodipodi:cx="25.382071"
       sodipodi:cy="20.335243"
       sodipodi:r1="3.334259"
       sodipodi:r2="1.6671296"
       sodipodi:arg1="0.60107375"
       sodipodi:arg2="1.2293923"
       inkscape:flatsided="false"
       inkscape:rounded="0"
       inkscape:randomized="0"
       d="m 28.13193,22.220861 -2.191687,-0.314706 -1.501748,1.627048 -0.377966,-2.181668 -2.01148,-0.925462 1.958092,-1.033639 0.258585,-2.199015 1.588133,1.542844 2.171294,-0.433604 -0.976572,1.987169 z"
       inkscape:transform-center-x="0.42487058"
       inkscape:transform-center-y="0.037480746"
       transform="matrix(0.38553218,0,0,0.35326917,21.715024,260.10556)" />
    <text
       xml:space="preserve"
       style="font-style:normal;font-variant:normal;font-weight:normal;font-stretch:normal;font-size:9.0715847px;line-height:1.25;font-family:sans-serif;-inkscape-font-specification:sans-serif;letter-spacing:0px;word-spacing:0px;opacity:1;fill:#000000;fill-opacity:1;stroke:none;stroke-width:0.48597777"
       x="35.382843"
       y="256.5065"
       id="text1661"
       transform="scale(0.91097522,1.0977247)"><tspan
         sodipodi:role="line"
         x="35.382843"
         y="256.5065"
         style="font-style:normal;font-variant:normal;font-weight:normal;font-stretch:normal;font-size:5.84402323px;font-family:'Script MT Bold';-inkscape-font-specification:'Script MT Bold, ';fill:#ffffff;fill-opacity:1;stroke-width:0.48597777"
         id="tspan1663"><tspan
   id="tspan1665"
   style="font-style:normal;font-variant:normal;font-weight:normal;font-stretch:normal;font-size:5.84402323px;font-family:'Script MT Bold';-inkscape-font-specification:'Script MT Bold, ';text-align:center;text-anchor:middle;fill:#ffffff;fill-opacity:1;stroke-width:0.48597777">Sweet </tspan>Paradise</tspan></text>
  </g>
</svg>
